<svg width="54px" height="54px" viewBox="0 0 54 54" version="1.1" xmlns="http://www.w3.org/2000/svg"
    xmlns:xlink="http://www.w3.org/1999/xlink">
    <g stroke="none" stroke-width="1" fill="none" fill-rule="evenodd">
        <g stroke="#747474" stroke-opacity="0.198794158" fill="#b90000" fill-opacity="0.816519475">
            <path
                d="M 32.7 29 L 38.3 23.3 C 39.9 21.8 39.9 19.2 38.3 17.7 C 36.8 16.1 34.2 16.1 32.7 17.7 L 27 23.3 L 21.3 17.7 C 19.8 16.1 17.2 16.1 15.7 17.7 C 14.1 19.2 14.1 21.8 15.7 23.3 L 21.3 29 L 15.7 34.7 C 14.1 36.2 14.1 38.8 15.7 40.3 C 17.2 41.9 19.8 41.9 21.3 40.3 L 27 34.7 L 32.7 40.3 C 34.2 41.9 36.8 41.9 38.3 40.3 C 39.9 38.8 39.9 36.2 38.3 34.7 L 32.7 29 Z M 27 53 C 41.4 53 53 41.4 53 27 C 53 12.6 41.4 1 27 1 C 12.6 1 1 12.6 1 27 C 1 41.4 12.6 53 27 53 Z">
            </path>
        </g>
    </g>
</svg>