<svg width="96" height="96" viewBox="0 0 96 96" fill="none" xmlns="http://www.w3.org/2000/svg">
<circle cx="48" cy="48" r="48" fill="#688197" fill-opacity="0.1"/>
<path d="M45.4166 70.4292C35.4574 69.72 29.9999 65.8042 29.9999 64.4167V57.5408C33.4841 59.2367 37.7083 60.3775 42.3333 60.9325C42.3333 58.8975 42.4566 56.8317 42.9808 54.8275C37.7083 54.1492 32.9908 52.5767 29.9999 50.3875V41.7233C34.4091 44.2208 40.7916 45.8242 47.9449 45.9167C48.0374 45.8242 48.0991 45.7008 48.1916 45.6083C54.9749 38.8558 65.4583 37.9308 73.1666 42.9258V33.5833C73.1666 26.7692 62.1283 21.25 48.4999 21.25C34.8716 21.25 23.8333 26.7692 23.8333 33.5833V64.4167C23.8333 71.2308 34.9024 76.75 48.4999 76.75C49.5483 76.75 50.5966 76.75 51.5833 76.6575C50.4116 75.8867 49.2399 75.0233 48.1916 73.975C47.1124 72.865 46.1874 71.6933 45.4166 70.4292ZM48.4999 27.4167C60.4324 27.4167 66.9999 32.0417 66.9999 33.5833C66.9999 35.125 60.4324 39.75 48.4999 39.75C36.5674 39.75 29.9999 35.125 29.9999 33.5833C29.9999 32.0417 36.5674 27.4167 48.4999 27.4167ZM74.1224 67.1917C75.4791 65.0642 76.2499 62.505 76.2499 59.7917C76.2499 52.0833 70.0833 45.9167 62.3749 45.9167C54.6666 45.9167 48.4999 52.0833 48.4999 59.7917C48.4999 67.5 54.6666 73.6667 62.3749 73.6667C65.0574 73.6667 67.5857 72.8958 69.7132 71.57L79.3333 81.0358L83.6191 76.75L74.1224 67.1917ZM62.3749 67.5C58.1199 67.5 54.6666 64.0467 54.6666 59.7917C54.6666 55.5367 58.1199 52.0833 62.3749 52.0833C66.6299 52.0833 70.0833 55.5367 70.0833 59.7917C70.0833 64.0467 66.6299 67.5 62.3749 67.5Z" fill="#98A4AE" fill-opacity="0.5"/>
<path d="M79.6666 3.5V5.83333H70.3333V3.5H79.6666ZM79.6666 8.16667V10.5H70.3333V8.16667H79.6666ZM79.6666 12.8333V15.1667H70.3333V12.8333H79.6666ZM66.8333 17.5H83.1666L74.9999 25.6667L66.8333 17.5Z" fill="#B8BFC6"/>
<path d="M15.6666 25.75V27.5833H8.33325V25.75H15.6666ZM15.6666 29.4167V31.25H8.33325V29.4167H15.6666ZM15.6666 33.0833V34.9167H8.33325V33.0833H15.6666ZM5.58325 36.75H18.4166L11.9999 43.1667L5.58325 36.75Z" fill="#B8BFC6"/>
<path d="M86 44.875V46.125H81V44.875H86ZM86 47.375V48.625H81V47.375H86ZM86 49.875V51.125H81V49.875H86ZM79.125 52.375H87.875L83.5 56.75L79.125 52.375Z" fill="#B8BFC6"/>
</svg>
