<svg width="97" height="96" viewBox="0 0 97 96" fill="none" xmlns="http://www.w3.org/2000/svg">
<circle cx="48.5" cy="48" r="48" fill="#688197" fill-opacity="0.1"/>
<path d="M41.2043 20.7361C46.5002 20.7361 51.5791 22.8398 55.3238 26.5846C59.0686 30.3293 61.1723 35.4082 61.1723 40.7041C61.1723 45.65 59.3598 50.1966 56.38 53.6986L57.2094 54.5281H59.6363L74.9963 69.8881L70.3883 74.4961L55.0283 59.1361V56.7092L54.1989 55.8798C50.6968 58.8596 46.1502 60.6721 41.2043 60.6721C35.9085 60.6721 30.8295 58.5683 27.0848 54.8236C23.3401 51.0789 21.2363 45.9999 21.2363 40.7041C21.2363 35.4082 23.3401 30.3293 27.0848 26.5846C30.8295 22.8398 35.9085 20.7361 41.2043 20.7361ZM41.2043 26.8801C33.5243 26.8801 27.3803 33.0241 27.3803 40.7041C27.3803 48.3841 33.5243 54.5281 41.2043 54.5281C48.8843 54.5281 55.0283 48.3841 55.0283 40.7041C55.0283 33.0241 48.8843 26.8801 41.2043 26.8801Z" fill="#98A4AE" fill-opacity="0.5"/>
<path d="M75.9142 1.99127C74.7815 1.99127 73.6746 2.2806 72.5934 2.85926L71.9241 1.02116C72.5076 0.714815 73.1597 0.468034 73.8805 0.280821C74.6185 0.093607 75.3994 0 76.2232 0C77.2014 0 77.9994 0.136155 78.6173 0.408466C79.2523 0.663757 79.7585 0.995635 80.1361 1.4041C80.5137 1.81256 80.7711 2.27209 80.9084 2.78267C81.0628 3.27623 81.1401 3.75278 81.1401 4.2123C81.1401 4.79096 81.0285 5.31005 80.8054 5.76957C80.5823 6.21208 80.3077 6.62905 79.9816 7.0205C79.6556 7.41194 79.2952 7.78637 78.9004 8.14378C78.5057 8.50119 78.1453 8.87561 77.8192 9.26706C77.4931 9.64149 77.2186 10.0585 76.9954 10.518C76.7723 10.9605 76.6608 11.4626 76.6608 12.0242C76.6608 12.1093 76.6608 12.2029 76.6608 12.305C76.6608 12.4071 76.6694 12.5007 76.6865 12.5858H74.6786C74.6099 12.2455 74.5756 11.888 74.5756 11.5136C74.5756 10.969 74.67 10.4754 74.8588 10.0329C75.0647 9.59043 75.3222 9.18196 75.6311 8.80753C75.94 8.41609 76.2661 8.05868 76.6093 7.73531C76.9525 7.39493 77.2786 7.05454 77.5875 6.71415C77.8965 6.37376 78.1453 6.01635 78.3341 5.64193C78.54 5.2675 78.643 4.85904 78.643 4.41653C78.643 3.70172 78.4113 3.12306 77.9479 2.68055C77.4846 2.22103 76.8067 1.99127 75.9142 1.99127ZM77.5361 16.7215C77.5361 17.1811 77.3816 17.581 77.0727 17.9214C76.7638 18.2618 76.3433 18.432 75.8113 18.432C75.2792 18.432 74.8588 18.2618 74.5499 17.9214C74.2409 17.581 74.0865 17.1811 74.0865 16.7215C74.0865 16.262 74.2409 15.8621 74.5499 15.5217C74.8588 15.1813 75.2792 15.0111 75.8113 15.0111C76.3433 15.0111 76.7638 15.1813 77.0727 15.5217C77.3816 15.8621 77.5361 16.262 77.5361 16.7215Z" fill="#98A4AE" fill-opacity="0.5"/>
<path d="M61.5066 20.8634C61.0336 20.8634 60.5712 20.9853 60.1196 21.229L59.8401 20.4549C60.0838 20.3258 60.3562 20.2219 60.6572 20.1431C60.9655 20.0642 61.2916 20.0248 61.6357 20.0248C62.0442 20.0248 62.3776 20.0821 62.6356 20.1968C62.9008 20.3043 63.1123 20.4441 63.27 20.6161C63.4277 20.7882 63.5352 20.9817 63.5925 21.1967C63.657 21.4046 63.6893 21.6053 63.6893 21.7989C63.6893 22.0426 63.6427 22.2612 63.5495 22.4547C63.4563 22.6411 63.3417 22.8167 63.2055 22.9816C63.0693 23.1464 62.9187 23.3041 62.7539 23.4547C62.589 23.6052 62.4385 23.7629 62.3023 23.9278C62.1661 24.0855 62.0514 24.2611 61.9582 24.4546C61.865 24.641 61.8185 24.8524 61.8185 25.089C61.8185 25.1248 61.8185 25.1642 61.8185 25.2072C61.8185 25.2503 61.822 25.2897 61.8292 25.3255H60.9906C60.9619 25.1822 60.9475 25.0316 60.9475 24.8739C60.9475 24.6446 60.987 24.4367 61.0658 24.2503C61.1518 24.0639 61.2594 23.8919 61.3884 23.7342C61.5174 23.5694 61.6536 23.4188 61.797 23.2826C61.9403 23.1393 62.0765 22.9959 62.2055 22.8526C62.3346 22.7092 62.4385 22.5587 62.5173 22.401C62.6034 22.2433 62.6464 22.0712 62.6464 21.8849C62.6464 21.5838 62.5496 21.3401 62.3561 21.1537C62.1625 20.9602 61.8794 20.8634 61.5066 20.8634ZM62.184 27.0673C62.184 27.2609 62.1195 27.4293 61.9905 27.5727C61.8615 27.716 61.6858 27.7877 61.4636 27.7877C61.2414 27.7877 61.0658 27.716 60.9368 27.5727C60.8078 27.4293 60.7433 27.2609 60.7433 27.0673C60.7433 26.8738 60.8078 26.7054 60.9368 26.562C61.0658 26.4186 61.2414 26.347 61.4636 26.347C61.6858 26.347 61.8615 26.4186 61.9905 26.562C62.1195 26.7054 62.184 26.8738 62.184 27.0673Z" fill="#98A4AE" fill-opacity="0.5"/>
<path d="M74.5842 28.9755C73.8291 28.9755 73.0911 29.1683 72.3703 29.5541L71.9241 28.3287C72.3131 28.1245 72.7478 27.96 73.2284 27.8352C73.7204 27.7104 74.2409 27.6479 74.7901 27.6479C75.4423 27.6479 75.9743 27.7387 76.3862 27.9203C76.8095 28.0905 77.147 28.3117 77.3988 28.584C77.6505 28.8563 77.8221 29.1627 77.9136 29.5031C78.0166 29.8321 78.0681 30.1498 78.0681 30.4561C78.0681 30.8419 77.9937 31.188 77.845 31.4943C77.6962 31.7893 77.5132 32.0673 77.2958 32.3283C77.0784 32.5892 76.8381 32.8389 76.575 33.0771C76.3118 33.3154 76.0716 33.565 75.8542 33.826C75.6368 34.0756 75.4537 34.3536 75.305 34.6599C75.1563 34.9549 75.0819 35.2897 75.0819 35.6641C75.0819 35.7208 75.0819 35.7832 75.0819 35.8513C75.0819 35.9194 75.0876 35.9818 75.099 36.0385H73.7604C73.7146 35.8116 73.6918 35.5733 73.6918 35.3237C73.6918 34.9606 73.7547 34.6316 73.8805 34.3366C74.0178 34.0416 74.1895 33.7693 74.3954 33.5196C74.6013 33.2587 74.8187 33.0204 75.0476 32.8048C75.2764 32.5779 75.4938 32.351 75.6997 32.1241C75.9057 31.8971 76.0716 31.6589 76.1974 31.4092C76.3347 31.1596 76.4034 30.8873 76.4034 30.5923C76.4034 30.1158 76.2489 29.73 75.94 29.435C75.6311 29.1286 75.1791 28.9755 74.5842 28.9755ZM75.6654 38.7957C75.6654 39.102 75.5624 39.3686 75.3565 39.5956C75.1505 39.8225 74.8702 39.936 74.5155 39.936C74.1609 39.936 73.8805 39.8225 73.6746 39.5956C73.4687 39.3686 73.3657 39.102 73.3657 38.7957C73.3657 38.4893 73.4687 38.2227 73.6746 37.9957C73.8805 37.7688 74.1609 37.6554 74.5155 37.6554C74.8702 37.6554 75.1505 37.7688 75.3565 37.9957C75.5624 38.2227 75.6654 38.4893 75.6654 38.7957Z" fill="#98A4AE" fill-opacity="0.5"/>
</svg>
